<svg xmlns="http://www.w3.org/2000/svg" width="180.179" height="32" viewBox="0 0 180.179 32">
  <defs>
    <style>
      .cls-1 {
        fill: #00a82d;
      }

      .cls-2 {
        fill: #070707;
      }
    </style>
  </defs>
  <g id="head-logo" transform="translate(-167.454 -55)">
    <path id="Path_1" data-name="Path 1" class="cls-1" d="M19.259-13.528V10.719H9.485V-13.528H.454v-7.478H28.4v7.478Z" transform="translate(167 76.006)"/>
    <path id="Path_2" data-name="Path 2" class="cls-1" d="M12.663-16.151V-.409H6.317V-16.151H.454v-4.855H18.6v4.855Z" transform="translate(190.181 87.134)"/>
    <path id="Path_7" data-name="Path 7" class="cls-2" d="M15.421-11.719H10.008v15.5H5.72v-15.5H.333V-15.2H15.421ZM24.367-6a3.628,3.628,0,0,0-1.76-.41,2.536,2.536,0,0,0-2.131,1,4.359,4.359,0,0,0-.768,2.72V3.779H15.526V-9.774h4.182v2.515h.053a3.618,3.618,0,0,1,3.573-2.753,2.693,2.693,0,0,1,1.032.159Zm13.221,9.78H33.631V1.833h-.053a4.417,4.417,0,0,1-4.037,2.276,4.222,4.222,0,0,1-3.1-1.118A4.007,4.007,0,0,1,25.307.007q0-3.944,4.672-4.553l3.679-.49q0-2.223-2.409-2.223a8.222,8.222,0,0,0-4.606,1.443v-3.15a10.361,10.361,0,0,1,2.389-.794,12.557,12.557,0,0,1,2.759-.344q5.8,0,5.8,5.784ZM33.658-1.727V-2.64L31.2-2.323q-2.038.265-2.038,1.84a1.52,1.52,0,0,0,.5,1.171A1.907,1.907,0,0,0,31,1.145,2.476,2.476,0,0,0,32.917.331,2.94,2.94,0,0,0,33.658-1.727ZM51.167,3.289a8.269,8.269,0,0,1-4.09.821,6.916,6.916,0,0,1-5.056-1.893A6.536,6.536,0,0,1,40.09-2.667a7.2,7.2,0,0,1,2.071-5.446A7.654,7.654,0,0,1,47.7-10.1a7.107,7.107,0,0,1,3.467.635v3.547A4.768,4.768,0,0,0,48.242-6.9,3.854,3.854,0,0,0,45.39-5.85a3.926,3.926,0,0,0-1.052,2.905A3.862,3.862,0,0,0,45.344-.119,3.7,3.7,0,0,0,48.11.907a5.52,5.52,0,0,0,3.057-.979Zm16.318.49H62.47L58.142-2.945h-.053V3.779H53.907V-16.285h4.182V-3.514h.053l4.037-6.26h4.963L62.284-3.408Zm22.79-15.5H84.863v15.5H80.575v-15.5H75.188V-15.2H90.276Zm15.154,15.5H101.26v-7.7q0-2.978-2.17-2.978a2.222,2.222,0,0,0-1.8.834A3.216,3.216,0,0,0,96.6-3.95V3.779H92.42V-16.285H96.6v8.523h.053a4.752,4.752,0,0,1,4.169-2.343q4.606,0,4.606,5.559Zm14.585,0h-3.957V1.833H116a4.417,4.417,0,0,1-4.037,2.276,4.222,4.222,0,0,1-3.1-1.118A4.007,4.007,0,0,1,107.732.007q0-3.944,4.672-4.553l3.679-.49q0-2.223-2.409-2.223a8.222,8.222,0,0,0-4.606,1.443v-3.15a10.361,10.361,0,0,1,2.389-.794,12.557,12.557,0,0,1,2.759-.344q5.8,0,5.8,5.784Zm-3.931-5.506V-2.64l-2.462.318q-2.038.265-2.038,1.84a1.52,1.52,0,0,0,.5,1.171,1.907,1.907,0,0,0,1.343.457,2.476,2.476,0,0,0,1.919-.814A2.94,2.94,0,0,0,116.083-1.727ZM131.515,3.62a6.182,6.182,0,0,1-2.792.49q-4.42,0-4.42-4.592V-6.69h-2.2V-9.774h2.2V-12.7l4.169-1.191v4.116h3.044V-6.69h-3.044v5.479q0,2.118,1.681,2.118a2.834,2.834,0,0,0,1.363-.384Z" transform="translate(216.118 82.891)"/>
  </g>
</svg>
