<svg xmlns="http://www.w3.org/2000/svg" width="227.37" height="40.026" viewBox="0 0 227.37 40.026">
  <defs>
    <style>
      .cls-1 {
        fill: #00a82d;
      }

      .cls-2 {
        fill: #070707;
      }
    </style>
  </defs>
  <g id="head-logo-login" transform="translate(-167.454 -55)">
    <path id="Path_1" data-name="Path 1" class="cls-1" d="M23.976-11.653V18.676H11.75V-11.653H.454v-9.353H35.412v9.353Z" transform="translate(167 76.006)"/>
    <path id="Path_2" data-name="Path 2" class="cls-1" d="M15.725-14.933V4.757H7.788v-19.69H.454v-6.072h22.7v6.072Z" transform="translate(195.995 89.925)"/>
    <path id="Path_7" data-name="Path 7" class="cls-2" d="M19.646-10.44H12.717V9.4H7.228V-10.44H.333V-14.9H19.646ZM31.1-3.122a4.644,4.644,0,0,0-2.253-.525,3.246,3.246,0,0,0-2.728,1.279,5.58,5.58,0,0,0-.983,3.481V9.4H19.782V-7.95h5.353v3.219H25.2q1.271-3.524,4.574-3.524a3.447,3.447,0,0,1,1.321.2ZM48.023,9.4H42.957V6.907h-.068a5.654,5.654,0,0,1-5.167,2.914A5.4,5.4,0,0,1,33.75,8.39,5.13,5.13,0,0,1,32.3,4.57q0-5.048,5.98-5.828l4.71-.627q0-2.846-3.083-2.846a10.524,10.524,0,0,0-5.9,1.847V-6.917A13.263,13.263,0,0,1,37.07-7.933a16.074,16.074,0,0,1,3.532-.44q7.42,0,7.42,7.4ZM42.991,2.35V1.181l-3.151.407q-2.609.339-2.609,2.355a1.946,1.946,0,0,0,.635,1.5,2.441,2.441,0,0,0,1.72.584,3.169,3.169,0,0,0,2.456-1.042A3.763,3.763,0,0,0,42.991,2.35ZM65.4,8.771a10.585,10.585,0,0,1-5.235,1.05A8.853,8.853,0,0,1,53.7,7.4a8.367,8.367,0,0,1-2.473-6.251,9.217,9.217,0,0,1,2.651-6.971,9.8,9.8,0,0,1,7.09-2.55A9.1,9.1,0,0,1,65.4-7.56v4.54A6.1,6.1,0,0,0,61.66-4.274a4.933,4.933,0,0,0-3.651,1.347A5.025,5.025,0,0,0,56.663.792,4.944,4.944,0,0,0,57.95,4.409a4.732,4.732,0,0,0,3.541,1.313A7.066,7.066,0,0,0,65.4,4.468ZM86.293,9.4H79.872L74.332.792h-.068V9.4H68.911V-16.285h5.353V.063h.068L79.5-7.95h6.353L79.635.2ZM115.466-10.44h-6.929V9.4h-5.489V-10.44h-6.9V-14.9h19.313ZM134.863,9.4h-5.336V-.462q0-3.812-2.778-3.812a2.844,2.844,0,0,0-2.3,1.067A4.117,4.117,0,0,0,123.564-.5V9.4H118.21V-16.285h5.353v10.91h.068a6.083,6.083,0,0,1,5.336-3q5.9,0,5.9,7.115Zm18.669,0h-5.065V6.907H148.4a5.654,5.654,0,0,1-5.167,2.914A5.4,5.4,0,0,1,139.26,8.39a5.13,5.13,0,0,1-1.448-3.82q0-5.048,5.98-5.828l4.71-.627q0-2.846-3.083-2.846a10.524,10.524,0,0,0-5.9,1.847V-6.917a13.263,13.263,0,0,1,3.058-1.016,16.074,16.074,0,0,1,3.532-.44q7.42,0,7.42,7.4ZM148.5,2.35V1.181l-3.151.407q-2.609.339-2.609,2.355a1.946,1.946,0,0,0,.635,1.5,2.441,2.441,0,0,0,1.72.584,3.169,3.169,0,0,0,2.456-1.042A3.763,3.763,0,0,0,148.5,2.35Zm19.753,6.844a7.913,7.913,0,0,1-3.575.627q-5.658,0-5.658-5.879V-4h-2.812V-7.95h2.812v-3.744l5.337-1.525V-7.95h3.9V-4h-3.9V3.011q0,2.711,2.152,2.711a3.627,3.627,0,0,0,1.745-.491Z" transform="translate(226.569 85.205)"/>
  </g>
</svg>
